# xmcd
#
# Track frame offsets:
# 150
# 19298
# 38155
# 62038
# 73576
# 86112
# 100582
# 111578
# 129624
# 156091
# 168587
# 189319
# 208585
# 220813
# 232861
# 248208
#
# Disc length: 3597 seconds
#
#
# Revision: 0
# Processed by: cddbd v1.5PL3 Copyright (c) Steve Scherf et al.
# Submitted via: FreeRIP 2.51 
#
DISCID=e00e0b10
DTITLE=gsgdsd - gegrvq
DYEAR=1900
DGENRE=Acid
TTITLE0=dfdf
TTITLE1=dfdf
TTITLE2=fdf
TTITLE3=fdf
TTITLE4=dfds
TTITLE5=dsf
TTITLE6=cxv
TTITLE7=xzc
TTITLE8=xzcxz
TTITLE9=zxc
TTITLE10=zxcc
TTITLE11=zc
TTITLE12=zxcx
TTITLE13=zxcx
TTITLE14=zxc
TTITLE15=zxc
EXTD=dfd
EXTT0=
EXTT1=
EXTT2=
EXTT3=
EXTT4=
EXTT5=
EXTT6=
EXTT7=
EXTT8=
EXTT9=
EXTT10=
EXTT11=
EXTT12=
EXTT13=
EXTT14=
EXTT15=
PLAYORDER=
